<svg width="41" height="33" viewBox="0 0 41 33" fill="none" xmlns="http://www.w3.org/2000/svg">
<path d="M0.858724 22.126H3.17215C4.72951 28.5837 12.926 32.1833 20.5 32.1833C28.0864 32.1833 36.2723 28.5765 37.8279 22.126H40.1413C40.9048 22.126 41.2872 21.3135 40.7473 20.8383L35.9604 16.625C35.6257 16.3305 35.0831 16.3305 34.7484 16.625L29.9615 20.8383C29.4216 21.3135 29.8039 22.126 30.5674 22.126H33.0774C31.6284 25.5402 27.0097 27.5687 22.7852 28.0356V16.0916H26.4988C26.9721 16.0916 27.3558 15.7539 27.3558 15.3373V12.823C27.3558 12.4064 26.9721 12.0687 26.4988 12.0687H22.7852V11.7249C25.4477 10.8965 27.3555 8.66212 27.3558 6.03509C27.3562 2.75139 24.3282 0.0463628 20.5978 0.000602218C16.7666 -0.0464784 13.6441 2.67301 13.6441 6.03434C13.6441 8.66168 15.5521 10.8964 18.2147 11.7249V12.0687H14.5011C14.0279 12.0687 13.6441 12.4064 13.6441 12.823V15.3373C13.6441 15.7539 14.0279 16.0916 14.5011 16.0916H18.2147V28.0356C14.0058 27.5705 9.37208 25.5414 7.92256 22.126H10.4325C11.196 22.126 11.5784 21.3135 11.0385 20.8383L6.25158 16.625C5.91693 16.3305 5.37432 16.3305 5.03959 16.625L0.252694 20.8383C-0.287134 21.3135 0.0952232 22.126 0.858724 22.126ZM20.5 4.02288C21.7601 4.02288 22.7853 4.92521 22.7853 6.03434C22.7853 7.14347 21.7601 8.04579 20.5 8.04579C19.2399 8.04579 18.2147 7.14347 18.2147 6.03434C18.2147 4.92521 19.2399 4.02288 20.5 4.02288Z" fill="#F8F8F8"/>
</svg>
