<svg width="40" height="20" viewBox="0 0 40 20" fill="none" xmlns="http://www.w3.org/2000/svg">
<path d="M18.8343 18.1335C18.93 18.1999 19.0337 18.2663 19.1354 18.331C17.114 19.4207 14.7411 20.0011 12.3149 19.9992C10.6976 20.0002 9.09598 19.7424 7.60154 19.2404C6.1071 18.7384 4.74918 18.0021 3.60543 17.0736C2.46168 16.145 1.55454 15.0425 0.93589 13.8291C0.31724 12.6156 -0.000785417 11.315 1.45662e-06 10.0017C-0.000208931 8.19284 0.603696 6.41782 1.7474 4.86564C2.89111 3.31346 4.5318 2.04224 6.49475 1.18737C8.45769 0.332491 10.6694 -0.0740349 12.8943 0.0110798C15.1193 0.0961945 17.2741 0.669763 19.1294 1.6707C19.0297 1.74035 18.93 1.80351 18.8542 1.87477C17.4166 2.8828 16.2633 4.13041 15.4724 5.53275C14.6816 6.93509 14.272 8.45928 14.2713 10.0017C14.2713 13.1193 15.9325 16.0831 18.8343 18.1335ZM27.5314 0.00256636C25.1073 -0.0012621 22.7363 0.5793 20.7189 1.6707C20.8166 1.74035 20.9163 1.80351 20.9921 1.87477C23.9078 3.92026 25.577 6.88566 25.577 10.0017C25.577 13.1177 23.9118 16.0799 21.014 18.1335C20.9163 18.1999 20.8126 18.2663 20.7129 18.331C22.7326 19.4211 25.1043 20.0015 27.5294 19.9992C29.1594 20.0161 30.7774 19.7701 32.2893 19.2753C33.8013 18.7805 35.1773 18.0468 36.3374 17.1167C37.4974 16.1867 38.4186 15.0789 39.0473 13.8575C39.676 12.6361 39.9999 11.3255 40 10.0017C40.0001 8.67788 39.6766 7.36723 39.0481 6.14576C38.4196 4.9243 37.4987 3.81634 36.3388 2.88616C35.1789 1.95599 33.8031 1.22211 32.2912 0.727105C30.7793 0.232102 29.1614 -0.0141735 27.5314 0.00256636ZM19.9231 2.14685C18.4569 3.08046 17.2718 4.27299 16.4577 5.63397C15.6436 6.99495 15.2219 8.48862 15.2246 10.0017C15.2207 11.5156 15.6419 13.0103 16.456 14.3722C17.2702 15.7341 18.4559 16.9274 19.9231 17.8614C21.39 16.927 22.5755 15.7337 23.39 14.3719C24.2044 13.0101 24.6263 11.5156 24.6237 10.0017C24.6264 8.48845 24.2045 6.99461 23.3901 5.63358C22.5756 4.27256 21.3899 3.08014 19.9231 2.14685Z" fill="#85B6FF"/>
</svg>
