<svg width="50" height="33" viewBox="0 0 50 33" fill="none" xmlns="http://www.w3.org/2000/svg">
<path d="M4.16667 20.087C4.74537 20.087 5.15046 19.8478 5.38194 19.3696C5.61343 18.8913 5.61343 18.413 5.38194 17.9348C5.15046 17.4565 4.74537 17.2174 4.16667 17.2174C3.58796 17.2174 3.18287 17.4565 2.95139 17.9348C2.71991 18.413 2.71991 18.8913 2.95139 19.3696C3.18287 19.8478 3.58796 20.087 4.16667 20.087ZM36.1328 18.7867C35.9881 18.5924 35.7096 18.2188 35.2973 17.6658C34.885 17.1128 34.5848 16.7092 34.3967 16.4552C34.2086 16.2011 33.9337 15.8349 33.572 15.3567C33.2104 14.8784 32.9029 14.4823 32.6497 14.1685C32.3966 13.8546 32.1036 13.5034 31.7708 13.1148C31.4381 12.7262 31.1126 12.3601 30.7943 12.0163L28.0816 15.1549C26.8808 16.5598 25.3725 17.2473 23.5569 17.2174C21.7412 17.1875 20.2546 16.4552 19.0972 15.0204C18.2726 13.9891 17.8639 12.8084 17.8711 11.4783C17.8783 10.1481 18.3015 8.97486 19.1406 7.95856L22.9818 3.34035C22.6635 3.17595 22.2946 3.05265 21.875 2.97045C21.4554 2.88825 21.1118 2.84341 20.8442 2.83594C20.5765 2.82846 20.1678 2.8322 19.6181 2.84715C19.0683 2.86209 18.7138 2.86957 18.5547 2.86957C17.2237 2.86957 16.0807 3.36277 15.1259 4.34918L11.697 7.8913H8.33333V20.087C8.40567 20.087 8.55758 20.0832 8.78906 20.0757C9.02054 20.0683 9.17969 20.0683 9.26649 20.0757C9.3533 20.0832 9.49436 20.0982 9.68967 20.1206C9.88498 20.143 10.0333 20.1766 10.1345 20.2215C10.2358 20.2663 10.3624 20.3298 10.5143 20.412C10.6662 20.4942 10.8001 20.5951 10.9158 20.7147L17.3611 27.2609C19.0249 28.9198 20.667 29.7493 22.2873 29.7493C23.4158 29.7493 24.32 29.3981 25 28.6957C25.8247 28.9946 26.6385 28.9348 27.4414 28.5163C28.2444 28.0978 28.7688 27.4626 29.0148 26.6107C30.0854 26.7004 31.004 26.3716 31.7708 25.6243C32.0602 25.3553 32.3206 25.0153 32.5521 24.6043C32.7836 24.1933 32.8848 23.8159 32.8559 23.4721C33.0006 23.6216 33.3116 23.6963 33.7891 23.6963C34.4112 23.6963 34.9682 23.5394 35.4601 23.2255C35.952 22.9117 36.31 22.5156 36.5343 22.0374C36.7585 21.5591 36.8453 21.0248 36.7947 20.4344C36.7441 19.8441 36.5234 19.2948 36.1328 18.7867ZM39.5833 20.087H41.6667V8.6087H39.6484L36.2413 4.57337C35.2865 3.4375 34.0639 2.86957 32.5738 2.86957H28.9497C27.662 2.86957 26.6059 3.37024 25.7812 4.3716L21.2457 9.81929C20.8406 10.3125 20.638 10.873 20.638 11.5007C20.638 12.1284 20.8333 12.6889 21.224 13.1821C21.8461 13.9443 22.6418 14.3329 23.6111 14.3478C24.5804 14.3628 25.3834 13.9966 26.02 13.2493L30.2083 8.36209C30.57 8.01834 30.957 7.85768 31.3694 7.8801C31.7817 7.90251 32.1217 8.10428 32.3893 8.48539C32.657 8.86651 32.7185 9.28872 32.5738 9.75204C32.8053 10.036 33.2104 10.5068 33.7891 11.1644C34.3678 11.822 34.8018 12.3302 35.0911 12.6889C35.5107 13.2269 36.1075 14.0153 36.8815 15.054C37.6555 16.0927 38.1221 16.7242 38.2812 16.9484C39.0336 17.9348 39.4676 18.981 39.5833 20.087ZM45.8333 20.087C46.412 20.087 46.8171 19.8478 47.0486 19.3696C47.2801 18.8913 47.2801 18.413 47.0486 17.9348C46.8171 17.4565 46.412 17.2174 45.8333 17.2174C45.2546 17.2174 44.8495 17.4565 44.6181 17.9348C44.3866 18.413 44.3866 18.8913 44.6181 19.3696C44.8495 19.8478 45.2546 20.087 45.8333 20.087ZM50 7.17391V21.5217C50 21.9103 49.8626 22.2466 49.5877 22.5306C49.3128 22.8145 48.9873 22.9565 48.6111 22.9565H39.1927C38.8021 23.928 38.2089 24.7238 37.4132 25.3441C36.6175 25.9643 35.7132 26.3492 34.7005 26.4986C34.2231 27.216 33.6408 27.8251 32.9536 28.3257C32.2663 28.8264 31.5249 29.1664 30.7292 29.3458C30.1215 30.1379 29.3656 30.7469 28.4614 31.1729C27.5571 31.5988 26.6276 31.7819 25.6727 31.7221C24.8047 32.2303 23.8932 32.5255 22.9384 32.6077C21.9835 32.6899 21.0612 32.5853 20.1714 32.2938C19.2817 32.0024 18.4353 31.6026 17.6324 31.0944C16.8294 30.5863 16.0807 29.981 15.3863 29.2785L9.15799 22.9565H1.38889C1.01273 22.9565 0.687211 22.8145 0.412326 22.5306C0.137442 22.2466 0 21.9103 0 21.5217V6.45652C0 6.06793 0.137442 5.73166 0.412326 5.44769C0.687211 5.16372 1.01273 5.02174 1.38889 5.02174H10.5252C10.7277 4.8125 11.0677 4.4538 11.5451 3.94565C12.0226 3.4375 12.3662 3.0788 12.576 2.86957C12.7857 2.66033 13.104 2.36141 13.5308 1.97283C13.9576 1.58424 14.3229 1.30401 14.6267 1.13213C14.9306 0.960258 15.2995 0.769701 15.7335 0.560462C16.1675 0.351223 16.616 0.205503 17.079 0.123302C17.542 0.0411005 18.0339 0 18.5547 0H21.0938C22.526 0 23.8354 0.418478 25.0217 1.25543C26.208 0.418478 27.5174 0 28.9497 0H32.5738C33.0802 0 33.5648 0.044837 34.0278 0.134511C34.4907 0.224185 34.8994 0.332541 35.2539 0.459579C35.6084 0.586617 35.9809 0.784647 36.3715 1.05367C36.7621 1.32269 37.0841 1.55435 37.3372 1.74864C37.5904 1.94293 37.9015 2.23811 38.2704 2.63417C38.6393 3.03023 38.9214 3.34409 39.1168 3.57575C39.3121 3.8074 39.6087 4.1661 40.0065 4.65183C40.4044 5.13757 40.7046 5.5 40.9071 5.73913H48.6111C48.9873 5.73913 49.3128 5.88111 49.5877 6.16508C49.8626 6.44905 50 6.78533 50 7.17391Z" fill="#F8F8F8"/>
</svg>
