<svg width="42" height="42" viewBox="0 0 42 42" fill="none" xmlns="http://www.w3.org/2000/svg">
<path d="M21 28.875C19.4425 28.875 17.9199 28.4131 16.6249 27.5478C15.3298 26.6825 14.3205 25.4526 13.7245 24.0136C13.1284 22.5747 12.9725 20.9913 13.2763 19.4637C13.5802 17.9361 14.3302 16.5329 15.4315 15.4315C16.5329 14.3302 17.9361 13.5802 19.4637 13.2763C20.9913 12.9725 22.5747 13.1284 24.0136 13.7245C25.4526 14.3205 26.6825 15.3298 27.5478 16.6249C28.4131 17.9199 28.875 19.4425 28.875 21C28.8862 22.0373 28.6902 23.0664 28.2985 24.0269C27.9067 24.9874 27.327 25.86 26.5935 26.5935C25.86 27.327 24.9874 27.9067 24.0269 28.2985C23.0664 28.6902 22.0373 28.8862 21 28.875ZM21 15.75C20.3062 15.7342 19.6165 15.8592 18.9724 16.1175C18.3283 16.3757 17.7432 16.7618 17.2525 17.2525C16.7618 17.7432 16.3757 18.3283 16.1175 18.9724C15.8592 19.6165 15.7342 20.3062 15.75 21C15.7342 21.6938 15.8592 22.3835 16.1175 23.0276C16.3757 23.6717 16.7618 24.2568 17.2525 24.7475C17.7432 25.2382 18.3283 25.6243 18.9724 25.8825C19.6165 26.1408 20.3062 26.2658 21 26.25C21.6938 26.2658 22.3835 26.1408 23.0276 25.8825C23.6717 25.6243 24.2568 25.2382 24.7475 24.7475C25.2382 24.2568 25.6243 23.6717 25.8825 23.0276C26.1408 22.3835 26.2658 21.6938 26.25 21C26.2658 20.3062 26.1408 19.6165 25.8825 18.9724C25.6243 18.3283 25.2382 17.7432 24.7475 17.2525C24.2568 16.7618 23.6717 16.3757 23.0276 16.1175C22.3835 15.8592 21.6938 15.7342 21 15.75Z" fill="#F8F8F8"/>
<path d="M38.4628 14.4952L35.3653 9.12975C35.0621 8.60367 34.5857 8.19912 34.0175 7.98513C33.4492 7.77115 32.8243 7.76098 32.2494 7.95637L29.0548 9.03656C28.5043 8.6659 27.9289 8.33349 27.3328 8.04169L26.6726 4.7355C26.5536 4.14021 26.232 3.60456 25.7625 3.21975C25.293 2.83494 24.7046 2.62476 24.0975 2.625H17.9025C17.2954 2.62476 16.707 2.83494 16.2375 3.21975C15.768 3.60456 15.4464 4.14021 15.3274 4.7355L14.6672 8.04169C14.0644 8.33029 13.4824 8.66053 12.9255 9.03L9.74925 7.95637C9.17469 7.76166 8.5504 7.77218 7.98272 7.98614C7.41505 8.20009 6.93912 8.60425 6.636 9.12975L3.5385 14.4952C3.23507 15.0206 3.12299 15.6349 3.22134 16.2336C3.31968 16.8323 3.62238 17.3784 4.07794 17.7791L6.61238 20.0064C6.59007 20.3372 6.5625 20.6653 6.5625 21C6.5625 21.3386 6.57563 21.6733 6.59925 22.0054L4.07925 24.2209C3.62327 24.6212 3.32007 25.1672 3.22124 25.7659C3.12241 26.3646 3.23406 26.9791 3.53719 27.5047L6.63469 32.8703C6.9377 33.3966 7.41399 33.8014 7.98225 34.0156C8.55051 34.2299 9.17551 34.2402 9.75056 34.0449L12.9452 32.9634C13.4955 33.3348 14.0709 33.6676 14.6672 33.9596L15.3274 37.2645C15.4464 37.8598 15.768 38.3954 16.2375 38.7803C16.707 39.1651 17.2954 39.3752 17.9025 39.375H23.625V36.75H17.9025L16.9706 32.0906C15.6815 31.6118 14.4849 30.9137 13.4334 30.0274L8.90925 31.5578L5.81175 26.1922L9.38831 23.0488C9.14362 21.6915 9.14051 20.3017 9.37913 18.9433L5.81175 15.8077L8.90925 10.4422L13.4072 11.9648C14.4661 11.0771 15.6721 10.3815 16.9706 9.90938L17.9025 5.25H24.0975L25.0294 9.90938C26.3184 10.3883 27.5151 11.0863 28.5666 11.9726L33.0908 10.4422L36.1883 15.8077L32.5159 19.026L34.2458 21L37.9208 17.7791C38.3767 17.3788 38.6799 16.8328 38.7788 16.2341C38.8776 15.6354 38.7659 15.0209 38.4628 14.4952V14.4952Z" fill="#F8F8F8"/>
<path d="M30.1875 34.3613L26.7881 30.9619L24.9375 32.8125L30.1875 38.0625L39.375 28.875L37.5244 27.0244L30.1875 34.3613Z" fill="#F8F8F8"/>
</svg>
