<svg width="51" height="24" viewBox="0 0 51 24" fill="none" xmlns="http://www.w3.org/2000/svg">
<path d="M47.6 24H3.4C2.49826 24 1.63346 23.7471 0.995837 23.2971C0.358213 22.847 0 22.2365 0 21.6L0 2.4C0 1.76348 0.358213 1.15303 0.995837 0.702944C1.63346 0.252856 2.49826 0 3.4 0L47.6 0C48.5017 0 49.3665 0.252856 50.0042 0.702944C50.6418 1.15303 51 1.76348 51 2.4V21.6C51 22.2365 50.6418 22.847 50.0042 23.2971C49.3665 23.7471 48.5017 24 47.6 24ZM35.2906 8.679C34.8818 8.66996 34.4726 8.67798 34.0652 8.703L34.1034 8.701C34.0892 8.731 34.8713 10.697 35.6136 12.531L35.7042 12.755C37.2824 16.651 37.2824 16.651 37.0317 17.029C36.8209 17.3364 36.4818 17.5909 36.0598 17.758L36.0485 17.762L35.7212 17.878L34.3131 17.897C32.9531 17.917 32.8993 17.921 32.7264 18.008C32.4034 18.172 32.2802 18.433 32.0337 19.475C31.9062 20.025 31.807 20.457 31.807 20.481C32.1522 20.531 32.5062 20.5435 32.8568 20.518L32.8426 20.519C33.1457 20.519 33.5226 20.519 33.9929 20.513C34.9296 20.5725 35.8737 20.5279 36.7908 20.381L36.7299 20.389C38.2043 20.0895 39.4829 19.4341 40.3424 18.537L40.3566 18.521C40.6357 18.235 47.804 8.789 47.804 8.707C47.4183 8.66896 47.028 8.65925 46.6395 8.678L46.6565 8.677H45.815L43.8317 8.688L43.4548 8.82C43.2513 8.88762 43.0666 8.98042 42.9094 9.094C42.8145 9.174 42.1614 10.182 41.3228 11.539C40.8885 12.3398 40.3759 13.1184 39.7885 13.869L39.8579 13.773C39.8267 13.727 39.5491 12.507 39.3224 11.491C39.0575 10.273 38.8039 9.221 38.7557 9.145C38.6662 8.98013 38.4887 8.84658 38.2613 8.773L38.2557 8.771C38.0417 8.691 37.9398 8.691 36.0754 8.676H35.292L35.2906 8.679ZM29.9498 8.81C29.8888 8.81 29.8761 8.837 29.8619 8.881C29.8237 9.004 29.2697 11.235 29.2697 11.267C29.3294 11.3143 29.4004 11.3539 29.4794 11.384L29.4837 11.385C30.0645 11.666 30.4612 12.11 30.5405 12.622L30.5419 12.63C30.5863 13.0263 30.4316 13.421 30.105 13.7448C29.7783 14.0687 29.3006 14.301 28.7555 14.401L28.7385 14.404C28.5458 14.436 28.4693 14.471 28.4509 14.535C28.4013 14.703 27.8588 16.892 27.8588 16.925C27.8588 16.931 27.8913 16.94 28.1123 16.94C28.2115 16.94 28.339 16.94 28.4665 16.933C29.7959 16.8812 31.0625 16.5165 32.0639 15.8972C33.0654 15.2778 33.744 14.4395 33.9915 13.516L33.9972 13.49C34.0911 12.9553 34.0715 12.4137 33.9391 11.883L33.9462 11.915C33.7502 11.2636 33.3364 10.6547 32.7393 10.1391C32.1421 9.62347 31.379 9.21612 30.5136 8.951L30.4753 8.941C30.3124 8.88196 30.1389 8.83858 29.9597 8.812L29.9455 8.81H29.9498ZM5.91458 8.674C5.678 8.674 5.06033 8.674 5.04758 8.682C5.03483 8.69 5.01217 8.812 4.96542 9.002L4.77133 9.76C4.624 10.348 4.51775 10.834 4.53475 10.842C4.55175 10.85 4.98808 10.854 5.4145 10.854H6.25883L6.24183 10.945C6.24183 10.971 6.18942 11.156 6.12142 11.434L5.85933 12.492C5.54254 13.3105 5.41905 14.1602 5.49383 15.007L5.49242 14.986C5.75025 16.068 7.07058 16.752 9.20975 16.911C9.49025 16.932 9.86992 16.942 10.2028 16.942C10.4537 16.9542 10.7058 16.9401 10.9508 16.9L10.9338 16.902C10.965 16.875 11.5189 14.72 11.526 14.596C11.526 14.544 11.4282 14.528 10.9792 14.508C9.877 14.465 9.384 14.211 9.384 13.685C9.384 13.525 9.90392 11.304 10.0314 10.922C10.0498 10.863 10.0767 10.847 10.6448 10.847H11.5033C11.8303 10.8573 12.1578 10.8473 12.4822 10.817L12.4553 10.819C12.4907 10.777 12.9908 8.819 12.9908 8.72C12.9908 8.683 12.7103 8.673 11.7909 8.673H10.5924L10.744 8.064C11.0202 7.001 10.9551 6.744 10.3502 6.537C10.047 6.43 10.0229 6.43 8.71817 6.414L7.36808 6.402L7.33408 6.513C7.31708 6.577 7.19808 7.038 7.07483 7.543C6.95158 8.048 6.83258 8.503 6.81558 8.565L6.78158 8.677L5.91458 8.674ZM14.4146 8.666L14.3792 8.777C14.3225 8.963 12.3746 16.791 12.3746 16.83C13.0279 16.8697 13.6841 16.8814 14.3395 16.865L14.3126 16.866H16.252L16.3087 16.656C16.3441 16.545 16.5353 15.785 16.7365 14.97C16.9348 14.17 17.1572 13.37 17.221 13.22C17.3826 12.7988 17.6912 12.4129 18.1186 12.0976C18.546 11.7822 19.0786 11.5476 19.6676 11.415L19.6931 11.41C20.0754 11.3297 20.4753 11.2992 20.8732 11.32H20.8632C21.5702 11.32 21.6141 11.315 21.6353 11.24C21.6991 11.045 22.2757 8.67 22.2657 8.647C22.1323 8.617 21.9915 8.60645 21.8521 8.616H21.8563H21.8266C21.5999 8.616 21.3775 8.629 21.1607 8.654L21.1848 8.652C20.3394 8.7767 19.5559 9.05721 18.9139 9.465L18.9182 9.462C18.5045 9.732 18.1447 10.038 17.8472 10.374L17.8316 10.393C17.8018 10.447 17.7565 10.496 17.6984 10.537C17.7197 10.38 17.7508 10.24 17.7919 10.102L17.7862 10.126C18.0214 9.241 17.8939 8.934 17.2196 8.755C16.7204 8.69537 16.214 8.67158 15.708 8.684H15.7193L14.4146 8.666ZM28.1619 8.64H27.9622C27.6278 8.64 27.3006 8.662 26.9832 8.704L27.0158 8.7C26.147 8.8246 25.3297 9.08694 24.6256 9.46719C23.9215 9.84745 23.349 10.3357 22.9514 10.895L22.9358 10.919C22.4965 11.481 22.2861 12.1178 22.3281 12.759V12.752L22.3252 12.891C22.3252 13.153 22.3592 13.409 22.423 13.658L22.4173 13.632C22.5841 14.181 22.9057 14.7007 23.363 15.1601C23.8204 15.6195 24.404 16.0092 25.0792 16.306L25.1047 16.316C25.4958 16.493 25.9477 16.641 26.4265 16.743L26.4647 16.75C26.5002 16.732 26.6617 16.117 26.8147 15.517L27.1235 14.304L26.9776 14.224C26.5984 14.0394 26.2895 13.7918 26.078 13.503L26.0709 13.492C25.8852 13.2756 25.8116 13.0204 25.8627 12.77L25.8612 12.776C25.8172 12.5353 25.8822 12.291 26.0468 12.078L26.0426 12.084C26.3656 11.614 26.9648 11.269 27.6873 11.153L27.7029 11.151C27.8162 11.143 27.9168 11.12 27.9168 11.099C27.9168 11.045 28.4835 8.785 28.5147 8.705C28.4934 8.649 28.4155 8.641 28.1619 8.641V8.64Z" fill="#85B6FF"/>
</svg>
