<svg width="61" height="20" viewBox="0 0 61 20" fill="none" xmlns="http://www.w3.org/2000/svg">
<path d="M44.3434 0.819227C42.9258 0.266578 41.4273 -0.010745 39.9185 0.000318412C35.0392 0.000318412 31.5933 2.62997 31.5689 6.40478C31.5384 9.17799 34.0176 10.7408 35.8931 11.6673C37.8174 12.62 38.4608 13.2203 38.4547 14.0719C38.4425 15.3671 36.9178 15.9544 35.4997 15.9544C33.5511 15.9544 32.4868 15.664 30.8492 14.9365L30.2423 14.633L29.5501 18.9788C30.7363 19.5073 32.8741 19.9608 35.0819 20C40.2692 20 43.6603 17.3867 43.6999 13.3704C43.7426 11.1551 42.4008 9.48141 39.577 8.09807C37.8601 7.20085 36.7958 6.60054 36.7958 5.69028C36.7958 4.88442 37.7076 4.02309 39.6136 4.02309C40.882 3.99026 42.1427 4.24488 43.3127 4.77023L43.7701 4.98882L44.4623 0.789864L44.3434 0.819227ZM57.0051 0.352678H53.1932C52.0069 0.352678 51.1134 0.701775 50.595 1.96114L43.2639 19.7292H48.4511L49.488 16.8157L55.8188 16.8222C55.9683 17.5041 56.4257 19.7292 56.4257 19.7292H61L57.0051 0.352678ZM24.5519 0.189547H29.4952L26.4029 19.5759H21.4657L24.5519 0.183023V0.189547ZM12.003 10.8745L12.5153 13.5662L17.3458 0.352678H22.5819L14.8025 19.7031H9.57861L5.30925 3.31837C5.24011 3.0482 5.07771 2.81617 4.85487 2.66912C3.31608 1.81868 1.68562 1.17331 0 0.747449L0.0670898 0.339625H8.02335C9.10288 0.385301 9.972 0.74745 10.2617 1.98071L11.9999 10.8843V10.8745H12.003ZM50.906 12.8517L52.876 7.42924C52.8516 7.48796 53.2816 6.31017 53.5317 5.58261L53.8702 7.25632L55.0137 12.8484H50.903V12.8517H50.906Z" fill="#85B6FF"/>
</svg>
